<svg width="133" height="32" viewBox="0 0 133 32" fill="none" xmlns="http://www.w3.org/2000/svg">
<g clip-path="url(#clip0_645_609)">
<path d="M28.8725 5.8718C27.9326 5.27708 26.7236 4.93897 25.285 4.9118C25.285 4.90878 25.291 4.90576 25.291 4.90576H24.9586L23.7224 4.9118L10.5933 4.96614C9.83171 4.96916 8.98848 5.59104 8.71646 6.3518C8.44143 7.11255 8.8434 7.7284 9.60503 7.72538L12.3282 7.71029L13.6701 7.70123C14.4317 7.69821 14.8277 8.31104 14.5556 9.0718V9.08387C14.2746 9.84161 13.4404 10.4544 12.6788 10.4575L11.3248 10.4665L1.96151 10.5209C1.19685 10.5239 0.356639 11.1427 0.0846274 11.9035C-0.187384 12.6612 0.205522 13.2771 0.967154 13.2771H0.973199L8.38098 13.2167C9.14262 13.2167 9.54157 13.8295 9.26955 14.5903V14.5963C8.9915 15.3541 8.14826 15.9729 7.38965 15.9759L2.90146 16.0182C2.1368 16.0212 1.29659 16.6431 1.02156 17.4039C0.752567 18.1616 1.14547 18.7744 1.90711 18.7744H1.91013L8.30542 18.7412L9.70779 18.7322C10.4694 18.7292 10.8684 19.342 10.5933 20.1058V20.1148C10.3153 20.8726 9.4781 21.4854 8.71646 21.4884L7.46219 21.4975C7.40779 21.4975 4.32499 21.4975 4.27058 21.5095C3.55429 21.591 2.81683 22.1767 2.55993 22.8831C2.31512 23.5744 2.62038 24.148 3.25205 24.2386C3.2581 24.2386 4.90528 24.2386 5.77572 24.2386C6.06586 24.2386 6.21396 24.4741 6.10817 24.7639L3.47268 31.9971H9.4116L12.2405 24.2295L13.0142 22.1103C13.0142 22.1103 13.6882 24.8876 18.8293 24.305C24.6443 23.6469 29.078 18.4635 30.4865 14.5993C31.9644 10.542 31.2662 7.3752 28.8755 5.86878L28.8725 5.8718ZM18.4152 19.3209C15.8069 19.3209 14.6947 17.3948 15.7132 14.6024C16.7317 11.8099 19.2463 9.88689 21.8546 9.88689C24.4629 9.88689 25.6114 11.8099 24.5929 14.6024C23.5743 17.3948 21.0597 19.3209 18.4152 19.3209Z" fill="black"/>
<path d="M53.0393 6.71709L48.9651 11.0582C48.1551 10.379 47.4207 10.1163 46.3991 10.1163C43.945 10.1163 41.7417 11.7012 40.5872 14.871L37.2868 23.9277H31.3569L38.1512 5.28614H43.3254L42.9265 7.62577C44.9273 5.6635 46.9915 4.87256 48.9168 4.87256C50.5791 4.87256 52.2111 5.47633 53.0423 6.72011L53.0393 6.71709Z" fill="black"/>
<path d="M70.6384 16.3772H56.923C56.5754 18.264 57.869 19.5833 60.5891 19.5833C62.4025 19.5833 64.497 19.0157 66.1532 17.9984L68.0422 21.3191C65.2103 23.2814 61.8283 24.3742 58.5399 24.3742C52.0056 24.3742 49.3218 20.6399 51.5099 14.6384C53.6286 8.82706 59.1142 4.86328 65.1196 4.86328C72.071 4.86328 74.232 9.5063 70.6354 16.3712L70.6384 16.3772ZM58.1984 12.981H66.4343C67.066 10.8316 66.0233 9.54555 63.6054 9.54555C61.1875 9.54555 59.223 10.7893 58.1984 12.981Z" fill="black"/>
<path d="M71.6418 21.9231L75.3926 17.8476C76.807 18.9404 79.1433 19.5835 81.4856 19.5835C83.0723 19.5835 84.106 19.1306 84.4233 18.2612C84.7407 17.3918 84.112 16.9389 82.0115 16.788C77.3843 16.5223 75.1749 14.2974 76.4262 10.865C77.7742 7.16687 81.8876 4.79102 87.0256 4.79102C90.0117 4.79102 92.4779 5.58196 93.8893 6.78951L90.1416 10.7503C89.0324 9.95932 87.485 9.54271 85.5567 9.54271C83.6285 9.54271 82.5344 9.95932 82.1898 10.9012C81.9148 11.6559 82.4951 12.0333 84.2783 12.2235C89.377 12.6401 91.6105 14.6023 90.2776 18.2612C88.8874 22.071 84.786 24.4106 79.3458 24.4106C75.9064 24.4106 73.3434 23.4688 71.6388 21.9201L71.6418 21.9231Z" fill="black"/>
<path d="M105.93 23.2061C104.054 23.9971 102.358 24.299 100.584 24.299C96.7697 24.299 94.6601 22.4122 96.6125 17.0537L99.1845 9.99556H96.0111L97.7308 5.28009H100.904L102.597 0.63707L108.723 -0.00292969L106.798 5.28009H111.446L109.726 9.99556H105.078L102.506 17.0537C101.941 18.5993 102.527 19.2816 103.812 19.2816C104.531 19.2816 105.444 19.0552 106.157 18.7533L105.933 23.2061H105.93Z" fill="black"/>
<path d="M111.446 14.6055C113.565 8.79416 118.96 4.86963 125.231 4.86963C131.503 4.86963 134.078 8.79416 131.959 14.6055C129.84 20.4168 124.445 24.3413 118.135 24.3413C111.824 24.3413 109.328 20.4168 111.443 14.6055H111.446ZM126.068 14.6055C127.06 11.8885 126.05 9.89001 123.406 9.89001C120.761 9.89001 118.331 11.8885 117.343 14.6055C116.354 17.3225 117.361 19.3209 119.969 19.3209C122.578 19.3209 125.08 17.3225 126.071 14.6055H126.068Z" fill="black"/>
</g>
<defs>
<clipPath id="clip0_645_609">
<rect width="132.693" height="32" fill="white"/>
</clipPath>
</defs>
</svg>
