<svg width="32" height="32" viewBox="0 0 32 32" fill="none" xmlns="http://www.w3.org/2000/svg">
<path d="M27.0912 5.78449C26.3395 5.30154 25.3727 5.02697 24.2222 5.0049C24.2222 5.00245 24.227 5 24.227 5H23.9611L22.9726 5.0049L12.473 5.04903C11.8639 5.05148 11.1895 5.5565 10.972 6.17428C10.752 6.79207 11.0735 7.29218 11.6826 7.28973L13.8603 7.27747L14.9335 7.27011C15.5426 7.26766 15.8592 7.76532 15.6417 8.38311V8.39291C15.4169 9.00825 14.7498 9.50591 14.1407 9.50836L13.0579 9.51571L5.5699 9.55984C4.95839 9.56229 4.28646 10.0649 4.06892 10.6826C3.85139 11.298 4.1656 11.7981 4.7747 11.7981H4.77953L10.7037 11.7491C11.3128 11.7491 11.6318 12.2467 11.4143 12.8645V12.8694C11.1919 13.4847 10.5176 13.9873 9.9109 13.9897L6.3216 14.0241C5.71009 14.0265 5.03815 14.5315 4.8182 15.1493C4.60309 15.7647 4.9173 16.2623 5.5264 16.2623H5.52881L10.6433 16.2353L11.7648 16.228C12.3739 16.2255 12.6929 16.7232 12.473 17.3434V17.3508C12.2506 17.9661 11.5811 18.4638 10.972 18.4662L9.96891 18.4736C9.9254 18.4736 7.46002 18.4736 7.41652 18.4834C6.84368 18.5496 6.25392 19.0252 6.04847 19.5988C5.8527 20.1602 6.09682 20.626 6.60198 20.6996C6.60681 20.6996 7.92409 20.6996 8.6202 20.6996C8.85224 20.6996 8.97067 20.8908 8.88607 21.1261L6.77842 27H11.5279L13.7902 20.6922L14.409 18.9712C14.409 18.9712 14.948 21.2267 19.0594 20.7535C23.7098 20.2191 27.2555 16.0098 28.3819 12.8719C29.5638 9.577 29.0055 7.00535 27.0936 5.78204L27.0912 5.78449ZM18.7282 16.706C16.6423 16.706 15.7529 15.142 16.5674 12.8743C17.382 10.6066 19.3929 9.04502 21.4788 9.04502C23.5647 9.04502 24.4832 10.6066 23.6687 12.8743C22.8541 15.142 20.8431 16.706 18.7282 16.706V16.706Z" fill="black"/>
</svg>
